<?xml version="1.0" encoding="UTF-8"?> <svg xmlns="http://www.w3.org/2000/svg" width="195" height="40" viewBox="0 0 195 40" fill="none"><g filter="url(#filter0_di)"><path d="M4 6C4 3.79086 5.79086 2 8 2L187 2C189.209 2 191 3.79086 191 6V30C191 32.2091 189.209 34 187 34H8C5.79086 34 4 32.2091 4 30V6Z" fill="#7950ED"></path></g><path d="M45.7462 20.284C45.7462 21.096 45.3402 21.684 44.4862 21.684C43.6322 21.684 43.2402 21.096 43.2262 20.284H41.6162C41.6162 22.048 42.8062 23.098 44.4862 23.098C46.1662 23.098 47.3562 22.048 47.3562 20.284V13.27H45.7462V20.284Z" fill="white"></path><path d="M57.3026 19.136C57.3026 16.714 55.5666 15.16 53.3686 15.16C51.1706 15.16 49.4346 16.714 49.4346 19.136C49.4346 21.558 51.1006 23.126 53.2986 23.126C55.5106 23.126 57.3026 21.558 57.3026 19.136ZM51.0586 19.136C51.0586 17.386 52.1366 16.546 53.3406 16.546C54.5306 16.546 55.6646 17.386 55.6646 19.136C55.6646 20.886 54.4886 21.74 53.2986 21.74C52.0946 21.74 51.0586 20.886 51.0586 19.136Z" fill="white"></path><path d="M58.8803 23H60.4763V15.286H58.8803V23ZM59.6923 14.264C60.2523 14.264 60.7003 13.816 60.7003 13.242C60.7003 12.668 60.2523 12.22 59.6923 12.22C59.1183 12.22 58.6703 12.668 58.6703 13.242C58.6703 13.816 59.1183 14.264 59.6923 14.264Z" fill="white"></path><path d="M68.0457 23H69.6277V18.45C69.6277 16.294 68.2697 15.16 66.4637 15.16C65.5397 15.16 64.6857 15.538 64.1677 16.168V15.286H62.5717V23H64.1677V18.688C64.1677 17.274 64.9377 16.546 66.1137 16.546C67.2757 16.546 68.0457 17.274 68.0457 18.688V23Z" fill="white"></path><path d="M82.6502 19.136C82.6502 16.714 80.9142 15.16 78.7162 15.16C76.5182 15.16 74.7822 16.714 74.7822 19.136C74.7822 21.558 76.4482 23.126 78.6462 23.126C80.8582 23.126 82.6502 21.558 82.6502 19.136ZM76.4062 19.136C76.4062 17.386 77.4842 16.546 78.6882 16.546C79.8782 16.546 81.0122 17.386 81.0122 19.136C81.0122 20.886 79.8362 21.74 78.6462 21.74C77.4422 21.74 76.4062 20.886 76.4062 19.136Z" fill="white"></path><path d="M91.2139 15.286H89.6179V19.584C89.6179 20.998 88.8479 21.726 87.6719 21.726C86.5099 21.726 85.7399 20.998 85.7399 19.584V15.286H84.1579V19.822C84.1579 21.978 85.5299 23.112 87.3359 23.112C88.2459 23.112 89.1139 22.734 89.6179 22.076V23H91.2139V15.286Z" fill="white"></path><path d="M94.9157 18.94C94.9157 17.302 95.6437 16.812 96.8197 16.812H97.2257V15.16C96.1337 15.16 95.3637 15.636 94.9157 16.406V15.286H93.3197V23H94.9157V18.94Z" fill="white"></path><path d="M101.798 19.136C101.798 21.558 103.366 23.126 105.578 23.126C107.468 23.126 108.7 22.076 109.134 20.564H107.412C107.118 21.362 106.53 21.782 105.578 21.782C104.29 21.782 103.436 20.83 103.436 19.136C103.436 17.456 104.29 16.504 105.578 16.504C106.53 16.504 107.146 16.98 107.412 17.722H109.134C108.7 16.098 107.468 15.16 105.578 15.16C103.366 15.16 101.798 16.728 101.798 19.136Z" fill="white"></path><path d="M118.074 19.136C118.074 16.714 116.338 15.16 114.14 15.16C111.942 15.16 110.206 16.714 110.206 19.136C110.206 21.558 111.872 23.126 114.07 23.126C116.282 23.126 118.074 21.558 118.074 19.136ZM111.83 19.136C111.83 17.386 112.908 16.546 114.112 16.546C115.302 16.546 116.436 17.386 116.436 19.136C116.436 20.886 115.26 21.74 114.07 21.74C112.866 21.74 111.83 20.886 111.83 19.136Z" fill="white"></path><path d="M130.586 23H132.168V18.45C132.168 16.294 130.796 15.16 128.99 15.16C127.87 15.16 126.778 15.748 126.302 16.686C125.77 15.678 124.748 15.16 123.53 15.16C122.606 15.16 121.766 15.538 121.248 16.168V15.286H119.652V23H121.248V18.688C121.248 17.274 122.018 16.546 123.194 16.546C124.356 16.546 125.126 17.274 125.126 18.688V23H126.708V18.688C126.708 17.274 127.478 16.546 128.654 16.546C129.816 16.546 130.586 17.274 130.586 18.688V23Z" fill="white"></path><path d="M145.133 23H146.715V18.45C146.715 16.294 145.343 15.16 143.537 15.16C142.417 15.16 141.325 15.748 140.849 16.686C140.317 15.678 139.295 15.16 138.077 15.16C137.153 15.16 136.313 15.538 135.795 16.168V15.286H134.199V23H135.795V18.688C135.795 17.274 136.565 16.546 137.741 16.546C138.903 16.546 139.673 17.274 139.673 18.688V23H141.255V18.688C141.255 17.274 142.025 16.546 143.201 16.546C144.363 16.546 145.133 17.274 145.133 18.688V23Z" fill="white"></path><path d="M155.732 15.286H154.136V19.584C154.136 20.998 153.366 21.726 152.19 21.726C151.028 21.726 150.258 20.998 150.258 19.584V15.286H148.676V19.822C148.676 21.978 150.048 23.112 151.854 23.112C152.764 23.112 153.632 22.734 154.136 22.076V23H155.732V15.286Z" fill="white"></path><path d="M163.311 23H164.893V18.45C164.893 16.294 163.535 15.16 161.729 15.16C160.805 15.16 159.951 15.538 159.433 16.168V15.286H157.837V23H159.433V18.688C159.433 17.274 160.203 16.546 161.379 16.546C162.541 16.546 163.311 17.274 163.311 18.688V23Z" fill="white"></path><path d="M166.929 23H168.525V15.286H166.929V23ZM167.741 14.264C168.301 14.264 168.749 13.816 168.749 13.242C168.749 12.668 168.301 12.22 167.741 12.22C167.167 12.22 166.719 12.668 166.719 13.242C166.719 13.816 167.167 14.264 167.741 14.264Z" fill="white"></path><path d="M170.873 20.858C170.873 22.426 171.727 23 173.099 23H174.359V21.67H173.379C172.707 21.67 172.483 21.432 172.483 20.858V16.588H174.359V15.286H172.483V13.368H170.873V15.286H169.963V16.588H170.873V20.858Z" fill="white"></path><path d="M178.868 21.166L176.698 15.286H174.92L177.958 22.874L176.39 26.626H178.042L182.774 15.286H181.122L178.868 21.166Z" fill="white"></path><path d="M11 25.7345C11 20.2646 11 14.7946 11 9.32472C11.0219 9.23857 11.0479 9.1531 11.0656 9.06627C11.2755 8.07211 11.8622 7.41982 12.8358 7.12171C12.9958 7.07248 13.1613 7.04034 13.3247 7C18.7946 7 24.2646 7 29.7345 7C29.8097 7.0212 29.8842 7.04718 29.9601 7.06222C31.0035 7.26598 31.6633 7.88613 31.9587 8.90148C31.9991 9.04097 32.0257 9.18387 32.0585 9.3254C32.0585 16.5505 32.0585 23.7749 32.0585 31C31.982 30.9528 31.8951 30.9159 31.8302 30.8557C30.14 29.2797 28.4518 27.7016 26.763 26.1236C26.6939 26.0593 26.6242 25.995 26.4847 25.8644C26.7001 26.6391 26.8895 27.3194 27.083 28.0134C26.9859 28.025 26.9407 28.0353 26.8963 28.0353C22.4192 28.036 17.9427 28.0449 13.4656 28.0298C12.3073 28.0257 11.3808 27.2579 11.0998 26.1625C11.0643 26.0203 11.0335 25.8767 11 25.7345ZM24.1565 21.7394C24.3849 22.0225 24.5593 22.2782 24.776 22.4922C24.8895 22.6043 25.0782 22.7069 25.23 22.7028C26.4977 22.6686 27.5766 22.1907 28.4197 21.2362C28.5455 21.094 28.6309 20.8553 28.6241 20.6653C28.5407 18.3713 27.9841 16.1929 26.9667 14.1335C26.9277 14.0542 26.8785 13.9673 26.8101 13.9167C25.8864 13.2248 24.8519 12.8166 23.6957 12.7393C23.5966 12.7325 23.4933 12.7974 23.3921 12.8289C23.7169 13.0169 24.0314 13.1147 24.3323 13.2419C24.6358 13.3697 24.9333 13.5147 25.2211 13.6747C25.4974 13.8278 25.7579 14.0097 26.0259 14.1793C22.9764 12.8843 19.955 12.835 16.9178 14.1936C17.3629 13.8969 17.8094 13.6056 18.2859 13.3779C18.7646 13.1489 19.274 12.9827 19.7697 12.7892C19.7656 12.7605 19.7615 12.7325 19.7574 12.7038C19.6527 12.6983 19.5468 12.6778 19.4435 12.6887C18.3694 12.8022 17.3848 13.1591 16.5123 13.8025C16.3995 13.886 16.3024 14.0111 16.2395 14.1376C15.2105 16.2182 14.6621 18.4198 14.5958 20.7398C14.5924 20.8629 14.6416 21.0133 14.7189 21.1083C15.5742 22.1544 16.6792 22.709 18.0336 22.7472C18.1266 22.75 18.2545 22.726 18.3092 22.6638C18.5526 22.3849 18.7762 22.0881 19.0107 21.7914C17.7116 21.1692 17.4176 20.9688 17.0525 20.4225C20.1334 22.0697 23.1555 22.1127 26.1743 20.443C25.6615 21.1076 24.9852 21.5001 24.1565 21.7394Z" fill="white"></path><path d="M20.5796 18.4397C20.57 19.1931 19.967 19.7901 19.2285 19.7784C18.488 19.7661 17.8918 19.146 17.9075 18.4048C17.9226 17.6636 18.5332 17.0906 19.2928 17.105C20.0572 17.1187 20.5892 17.6705 20.5796 18.4397Z" fill="white"></path><path d="M24.9551 18.4385C24.9523 19.1755 24.3917 19.7766 23.7189 19.7642C23.057 19.7513 22.5134 19.1578 22.5059 18.4405C22.4991 17.7089 23.0529 17.1079 23.7346 17.1079C24.4238 17.1079 24.9578 17.6905 24.9551 18.4385Z" fill="white"></path><defs><filter id="filter0_di" x="0" y="0" width="195" height="40" filterUnits="userSpaceOnUse" color-interpolation-filters="sRGB"><feFlood flood-opacity="0" result="BackgroundImageFix"></feFlood><feColorMatrix in="SourceAlpha" type="matrix" values="0 0 0 0 0 0 0 0 0 0 0 0 0 0 0 0 0 0 127 0"></feColorMatrix><feOffset dy="2"></feOffset><feGaussianBlur stdDeviation="2"></feGaussianBlur><feColorMatrix type="matrix" values="0 0 0 0 0.255924 0 0 0 0 0.163972 0 0 0 0 0.516081 0 0 0 0.15 0"></feColorMatrix><feBlend mode="normal" in2="BackgroundImageFix" result="effect1_dropShadow"></feBlend><feBlend mode="normal" in="SourceGraphic" in2="effect1_dropShadow" result="shape"></feBlend><feColorMatrix in="SourceAlpha" type="matrix" values="0 0 0 0 0 0 0 0 0 0 0 0 0 0 0 0 0 0 127 0" result="hardAlpha"></feColorMatrix><feOffset dx="4"></feOffset><feGaussianBlur stdDeviation="2"></feGaussianBlur><feComposite in2="hardAlpha" operator="arithmetic" k2="-1" k3="1"></feComposite><feColorMatrix type="matrix" values="0 0 0 0 0.426822 0 0 0 0 0.271566 0 0 0 0 0.866081 0 0 0 1 0"></feColorMatrix><feBlend mode="normal" in2="shape" result="effect2_innerShadow"></feBlend></filter></defs></svg> 