<svg width="76" height="27" viewBox="0 0 76 27" fill="none" xmlns="http://www.w3.org/2000/svg">
<path d="M13.592 26.48C11.576 26.48 9.752 26.144 8.12 25.472C6.488 24.768 5.096 23.824 3.944 22.64C2.792 21.424 1.896 20.048 1.256 18.512C0.648 16.944 0.344 15.296 0.344 13.568C0.344 11.168 0.872 8.976 1.928 6.992C3.016 5.008 4.552 3.424 6.536 2.24C8.552 1.024 10.92 0.415998 13.64 0.415998C16.392 0.415998 18.744 1.024 20.696 2.24C22.648 3.424 24.136 5.008 25.16 6.992C26.216 8.944 26.744 11.056 26.744 13.328C26.744 13.712 26.728 14.112 26.696 14.528C26.664 14.912 26.632 15.232 26.6 15.488H7.16C7.288 16.768 7.656 17.888 8.264 18.848C8.904 19.808 9.704 20.544 10.664 21.056C11.656 21.536 12.712 21.776 13.832 21.776C15.112 21.776 16.312 21.472 17.432 20.864C18.584 20.224 19.368 19.392 19.784 18.368L25.304 19.904C24.696 21.184 23.816 22.32 22.664 23.312C21.544 24.304 20.216 25.088 18.68 25.664C17.144 26.208 15.448 26.48 13.592 26.48ZM7.016 11.408H20.168C20.04 10.128 19.672 9.024 19.064 8.096C18.488 7.136 17.72 6.4 16.76 5.888C15.8 5.344 14.728 5.072 13.544 5.072C12.392 5.072 11.336 5.344 10.376 5.888C9.448 6.4 8.68 7.136 8.072 8.096C7.496 9.024 7.144 10.128 7.016 11.408ZM34.3273 26L25.0633 0.847998H31.7353L38.0713 20.144L44.4553 0.847998H50.5513L41.3353 26H34.3273ZM62.3701 26.48C60.3541 26.48 58.5301 26.144 56.8981 25.472C55.2661 24.768 53.8741 23.824 52.7221 22.64C51.5701 21.424 50.6741 20.048 50.0341 18.512C49.4261 16.944 49.1221 15.296 49.1221 13.568C49.1221 11.168 49.6501 8.976 50.7061 6.992C51.7941 5.008 53.3301 3.424 55.3141 2.24C57.3301 1.024 59.6981 0.415998 62.4181 0.415998C65.1701 0.415998 67.5221 1.024 69.4741 2.24C71.4261 3.424 72.9141 5.008 73.9381 6.992C74.9941 8.944 75.5221 11.056 75.5221 13.328C75.5221 13.712 75.5061 14.112 75.4741 14.528C75.4421 14.912 75.4101 15.232 75.3781 15.488H55.9381C56.0661 16.768 56.4341 17.888 57.0421 18.848C57.6821 19.808 58.4821 20.544 59.4421 21.056C60.4341 21.536 61.4901 21.776 62.6101 21.776C63.8901 21.776 65.0901 21.472 66.2101 20.864C67.3621 20.224 68.1461 19.392 68.5621 18.368L74.0821 19.904C73.4741 21.184 72.5941 22.32 71.4421 23.312C70.3221 24.304 68.9941 25.088 67.4581 25.664C65.9221 26.208 64.2261 26.48 62.3701 26.48ZM55.7941 11.408H68.9461C68.8181 10.128 68.4501 9.024 67.8421 8.096C67.2661 7.136 66.4981 6.4 65.5381 5.888C64.5781 5.344 63.5061 5.072 62.3221 5.072C61.1701 5.072 60.1141 5.344 59.1541 5.888C58.2261 6.4 57.4581 7.136 56.8501 8.096C56.2741 9.024 55.9221 10.128 55.7941 11.408Z" fill="black"/>
</svg>
