<?xml version="1.0" standalone="no"?>
<!DOCTYPE svg PUBLIC "-//W3C//DTD SVG 20010904//EN"
 "http://www.w3.org/TR/2001/REC-SVG-20010904/DTD/svg10.dtd">
<svg version="1.0" xmlns="http://www.w3.org/2000/svg"
 width="750.000000pt" height="323.000000pt" viewBox="0 0 750.000000 323.000000"
 preserveAspectRatio="xMidYMid meet">

<g transform="translate(0.000000,323.000000) scale(0.100000,-0.100000)"
fill="#000000" stroke="none">
<path d="M1192 3059 c-71 -14 -177 -76 -235 -139 -67 -72 -130 -193 -160 -307
l-24 -88 -106 -3 -105 -3 -6 -37 c-3 -20 -13 -113 -21 -207 -15 -158 -31 -327
-55 -555 -5 -52 -17 -165 -25 -250 -8 -85 -20 -196 -25 -247 -6 -50 -10 -114
-10 -142 l0 -51 890 0 890 0 0 25 0 25 -860 0 c-812 0 -860 1 -860 18 0 9 7
80 15 157 8 77 19 185 25 240 16 177 77 780 83 830 9 68 6 -96 -3 -203 -16
-199 -70 -943 -70 -969 0 -11 131 -13 761 -13 l760 0 -5 68 c-3 37 -10 148
-16 247 -31 559 -50 907 -54 958 -3 44 -1 57 10 57 8 0 14 10 14 25 0 25 -1
25 -78 25 l-78 0 -23 73 c-41 129 -98 224 -186 313 -135 137 -276 186 -443
153z m279 -61 c125 -62 228 -180 295 -338 40 -94 48 -120 36 -120 -6 0 -19 30
-31 68 -50 166 -187 315 -336 367 -251 87 -492 -63 -600 -373 -13 -37 -24 -59
-24 -50 -1 10 11 53 25 95 63 191 174 321 317 374 40 14 73 18 148 16 88 -2
103 -6 170 -39z m2 -71 c127 -63 222 -176 273 -327 13 -40 24 -74 24 -76 0 -2
-209 -4 -465 -4 -313 0 -465 3 -465 10 0 6 14 46 30 89 38 99 92 183 157 242
90 84 161 110 285 106 76 -3 95 -7 161 -40z m-856 -544 c-3 -10 -5 -2 -5 17 0
19 2 27 5 18 2 -10 2 -26 0 -35z m882 -128 c50 -25 111 -85 127 -124 16 -37
23 -188 10 -210 -5 -8 -85 -11 -272 -11 l-264 0 0 -65 c0 -66 21 -125 59 -169
52 -59 160 -73 248 -32 40 19 60 37 89 80 30 45 42 56 64 56 33 0 53 -21 44
-46 -27 -84 -103 -187 -177 -240 -81 -58 -147 -78 -242 -71 -112 8 -183 49
-240 137 -54 86 -59 244 -10 390 50 151 196 290 335 320 64 13 191 5 229 -15z
m163 -882 c14 -13 18 -31 18 -88 0 -42 -5 -76 -12 -83 -9 -9 -117 -12 -424
-12 -362 0 -415 2 -428 16 -12 11 -16 35 -16 84 0 106 -28 100 444 100 358 0
401 -2 418 -17z"/>
<path d="M1260 2157 c-47 -23 -78 -48 -104 -87 l-26 -40 145 0 c139 0 145 1
145 20 0 86 -85 142 -160 107z"/>
<path d="M900 1340 c0 -6 -11 -15 -25 -20 -26 -10 -32 -24 -15 -35 6 -3 10
-16 10 -29 0 -20 4 -22 43 -20 33 1 42 6 42 20 0 11 4 25 9 33 6 9 0 20 -20
37 -32 26 -44 29 -44 14z m37 -30 c10 0 13 -6 9 -16 -3 -9 -6 -21 -6 -27 0 -7
-13 -12 -29 -12 -16 0 -27 4 -24 8 3 4 -1 15 -8 23 -6 8 -10 15 -8 17 35 20
45 23 47 16 2 -5 11 -9 19 -9z"/>
<path d="M1024 1335 c-4 -8 -12 -15 -19 -15 -20 0 -29 -20 -16 -33 6 -6 11
-20 11 -32 0 -18 6 -21 40 -20 37 0 45 6 41 29 -1 4 3 14 10 22 13 15 4 34
-17 34 -8 0 -14 7 -14 15 0 8 -7 15 -15 15 -9 0 -18 -7 -21 -15z m42 -25 c16
0 19 -16 4 -25 -5 -3 -7 -11 -4 -18 3 -8 -6 -12 -25 -12 -16 0 -27 4 -24 8 3
4 -1 15 -8 23 -6 8 -10 15 -8 17 35 20 45 23 47 16 2 -5 10 -9 18 -9z"/>
<path d="M1154 1335 c-4 -8 -15 -15 -25 -15 -20 0 -26 -24 -9 -35 6 -3 10 -16
10 -29 0 -20 5 -22 43 -21 34 1 41 5 39 19 -2 10 2 24 8 31 13 16 5 35 -15 35
-7 0 -15 7 -19 15 -3 8 -10 15 -16 15 -6 0 -13 -7 -16 -15z m26 -15 c0 -5 7
-10 16 -10 11 0 14 -5 10 -16 -3 -9 -6 -21 -6 -27 0 -7 -13 -12 -30 -12 -16 0
-30 5 -30 12 0 6 -3 18 -6 27 -4 11 -1 16 10 16 9 0 16 5 16 10 0 6 5 10 10
10 6 0 10 -4 10 -10z"/>
<path d="M1284 1335 c-4 -8 -12 -15 -19 -15 -20 0 -28 -19 -15 -35 6 -8 9 -18
7 -23 -3 -4 -2 -14 3 -22 6 -10 12 -11 22 -2 9 7 19 8 28 2 23 -15 30 -12 30
13 0 13 5 28 11 34 13 13 4 33 -16 33 -7 0 -15 7 -19 15 -3 8 -10 15 -16 15
-6 0 -13 -7 -16 -15z m26 -15 c0 -5 7 -10 15 -10 17 0 20 -16 4 -25 -6 -4 -8
-12 -6 -19 3 -7 -7 -11 -24 -11 -19 0 -28 4 -25 12 3 7 1 15 -4 18 -15 9 -12
25 5 25 8 0 15 5 15 10 0 6 5 10 10 10 6 0 10 -4 10 -10z"/>
<path d="M1414 1335 c-4 -8 -12 -15 -19 -15 -20 0 -28 -19 -15 -35 6 -8 9 -19
5 -25 -12 -19 5 -31 27 -19 14 8 23 8 31 0 18 -18 27 -13 27 13 0 14 5 28 10
31 17 11 11 25 -15 35 -14 5 -25 14 -25 20 0 15 -20 12 -26 -5z m55 -32 c2 -2
-2 -9 -8 -17 -7 -8 -11 -19 -8 -23 3 -4 -8 -8 -24 -8 -16 0 -29 5 -29 12 0 6
-3 18 -6 27 -4 11 -1 16 10 16 9 0 16 5 16 10 0 9 10 5 49 -17z"/>
<path d="M1588 1250 c-7 -11 -18 -16 -27 -12 -13 5 -14 3 -4 -9 7 -9 22 -15
32 -14 20 1 61 32 61 45 0 15 -52 7 -62 -10z m24 -12 c-7 -7 -12 -8 -12 -2 0
14 12 26 19 19 2 -3 -1 -11 -7 -17z"/>
<path d="M5763 2585 c-65 -28 -91 -114 -58 -192 19 -44 118 -159 154 -177 36
-19 73 -3 163 70 85 68 98 88 105 158 5 53 4 57 -29 90 -45 45 -80 53 -135 33
-42 -16 -44 -15 -85 8 -49 28 -70 30 -115 10z"/>
<path d="M2607 2413 c-7 -37 -1 -42 68 -53 63 -10 90 -28 98 -66 4 -22 1 -24
-32 -24 -81 0 -78 4 -79 -146 -1 -97 2 -134 11 -135 20 -1 49 -7 53 -11 7 -8
-126 -743 -143 -793 -15 -42 -25 -53 -63 -72 -29 -15 -62 -23 -98 -23 l-53 0
3 -32 c2 -28 8 -34 30 -36 25 -3 27 -6 17 -23 -18 -35 -4 -49 50 -49 55 0 78
20 60 53 -9 16 3 17 179 17 187 0 190 0 195 22 9 32 -10 48 -55 48 -57 0 -106
24 -114 55 -3 14 3 83 15 153 57 336 88 495 93 487 5 -8 158 -545 190 -667 15
-54 39 -50 79 15 l32 52 22 -80 c20 -76 23 -80 51 -83 30 -3 36 6 300 412 193
299 270 409 272 393 4 -28 -104 -642 -122 -694 -12 -36 -15 -38 -60 -41 -46
-3 -47 -4 -44 -35 2 -24 8 -33 25 -35 19 -3 21 -6 11 -21 -6 -10 -8 -25 -5
-34 8 -21 103 -32 170 -21 50 9 52 10 52 41 l0 33 191 0 c189 0 192 0 197 22
9 32 -10 48 -55 48 -52 0 -104 23 -113 50 -4 12 -4 43 0 68 15 103 176 1008
186 1044 5 21 22 52 37 69 24 26 38 32 105 42 l78 11 -3 31 -3 30 -211 3 -211
2 -58 -88 c-34 -51 -70 -94 -84 -100 -42 -19 -168 -218 -157 -248 3 -8 -76
-139 -181 -301 -103 -157 -188 -282 -190 -277 -1 5 -61 220 -133 479 -72 259
-136 485 -141 503 l-11 32 -223 0 -223 0 -5 -27z m290 -365 c-3 -8 -6 -5 -6 6
-1 11 2 17 5 13 3 -3 4 -12 1 -19z m47 -163 c3 -16 -3 -3 -14 30 -11 33 -22
74 -24 90 -3 17 3 3 14 -30 11 -33 22 -73 24 -90z m25 -85 c0 -9 -4 -8 -9 5
-5 11 -9 27 -9 35 0 9 4 8 9 -5 5 -11 9 -27 9 -35z m20 -70 c0 -9 -4 -8 -9 5
-5 11 -9 27 -9 35 0 9 4 8 9 -5 5 -11 9 -27 9 -35z m25 -90 c4 -24 3 -29 -3
-15 -4 11 -11 36 -15 55 -4 24 -3 29 3 15 4 -11 11 -36 15 -55z m25 -90 c0 -9
-4 -8 -9 5 -5 11 -9 27 -9 35 0 9 4 8 9 -5 5 -11 9 -27 9 -35z m20 -70 c0 -9
-4 -8 -9 5 -5 11 -9 27 -9 35 0 9 4 8 9 -5 5 -11 9 -27 9 -35z m20 -70 c0 -9
-4 -8 -9 5 -5 11 -9 27 -9 35 0 9 4 8 9 -5 5 -11 9 -27 9 -35z"/>
<path d="M7144 2391 c-67 -29 -84 -118 -35 -173 27 -30 35 -33 86 -33 51 0 59
3 86 33 62 69 22 170 -71 178 -25 2 -55 0 -66 -5z m97 -26 c35 -19 52 -57 44
-97 -8 -34 -15 -35 -44 -4 -19 20 -20 24 -7 29 19 7 21 38 4 55 -7 7 -30 12
-52 12 -30 0 -37 3 -26 10 22 14 47 12 81 -5z m-101 -75 c0 -55 -23 -71 -34
-25 -8 33 3 75 20 75 10 0 14 -14 14 -50z m65 30 c0 -7 -6 -15 -12 -17 -8 -3
-13 4 -13 17 0 13 5 20 13 18 6 -3 12 -11 12 -18z m14 -114 c-10 -5 -30 -5
-46 0 l-28 8 28 4 c25 3 40 22 17 22 -5 0 -10 8 -10 18 0 13 6 11 29 -13 26
-28 27 -31 10 -39z"/>
<path d="M4841 2015 c-159 -45 -289 -159 -374 -330 -48 -96 -67 -176 -67 -283
0 -112 25 -197 79 -273 72 -101 157 -139 309 -139 183 1 324 77 438 236 98
137 138 265 132 418 -3 87 -8 110 -35 167 -41 89 -92 142 -169 180 -57 28 -77
33 -162 36 -66 2 -114 -2 -151 -12z m159 -120 c122 -63 154 -312 74 -567 -28
-87 -70 -149 -132 -192 -55 -39 -144 -43 -189 -10 -75 56 -108 151 -107 314 1
215 76 394 187 449 50 25 125 28 167 6z"/>
<path d="M4910 1813 c0 -5 11 -30 24 -56 61 -120 69 -271 26 -470 -12 -55 -19
-101 -16 -105 11 -10 43 28 74 86 51 98 66 158 66 262 -1 102 -18 159 -70 227
-32 43 -104 81 -104 56z"/>
<path d="M5720 1973 c-85 -31 -157 -57 -159 -59 -1 -1 1 -15 6 -31 9 -26 13
-28 69 -28 l59 0 -2 -65 c-2 -99 -90 -587 -116 -640 l-21 -45 -4 33 c-2 18 22
177 53 354 50 283 55 322 42 335 -12 13 -21 13 -50 4 -53 -18 -57 -28 -45
-101 10 -60 7 -87 -36 -330 -40 -230 -51 -275 -82 -338 -19 -40 -34 -80 -32
-89 4 -24 68 -37 126 -26 45 8 47 10 47 41 l0 32 178 0 178 0 -3 32 c-3 29 -7
33 -41 39 -52 8 -72 30 -70 76 1 21 33 217 72 436 38 219 67 405 64 413 -10
26 -75 14 -233 -43z"/>
<path d="M6553 2006 c-96 -31 -159 -73 -238 -159 -196 -211 -238 -511 -102
-714 68 -100 160 -143 307 -143 224 0 397 120 511 354 120 247 77 510 -103
627 -101 65 -242 78 -375 35z m198 -119 c77 -52 118 -202 99 -361 -24 -201
-77 -325 -163 -383 -117 -78 -224 -41 -279 96 -19 48 -22 75 -23 191 0 186 37
315 116 405 66 74 181 99 250 52z"/>
<path d="M6630 1811 c0 -5 11 -34 25 -64 60 -129 65 -242 23 -455 -11 -57 -17
-106 -13 -110 10 -10 49 43 85 116 33 67 60 171 60 232 0 97 -61 231 -125 270
-34 21 -55 26 -55 11z"/>
<path d="M2159 1743 c-5 -15 -9 -36 -7 -47 3 -20 10 -21 190 -24 l186 -2 12
35 c21 65 21 65 -185 65 l-185 0 -11 -27z"/>
<path d="M4379 1628 c-66 -89 -99 -193 -99 -311 0 -97 22 -167 90 -278 27 -45
50 -88 50 -96 0 -10 35 -13 171 -13 l170 0 -3 23 c-3 20 -9 22 -93 27 -196 12
-273 102 -282 335 -5 103 10 210 43 333 10 36 -13 26 -47 -20z"/>
<path d="M6106 1639 c-45 -52 -93 -162 -106 -241 -21 -120 4 -221 83 -350 25
-40 48 -83 52 -95 6 -23 9 -23 171 -23 l165 0 -3 23 c-3 20 -10 22 -88 28
-138 9 -195 44 -243 148 -28 60 -32 77 -35 187 -4 99 0 141 17 224 28 128 26
145 -13 99z"/>
<path d="M262 815 c-10 -30 -13 -102 -10 -287 l3 -248 28 -27 27 -28 3400 0
c3224 0 3400 1 3417 17 16 17 -146 18 -3415 18 l-3432 0 -2 298 c-3 261 -5
292 -16 257z"/>
<path d="M4384 815 c-9 -22 9 -37 37 -33 16 2 24 10 24 23 0 26 -52 35 -61 10z"/>
<path d="M7164 550 c0 -140 2 -198 3 -128 2 71 2 185 0 255 -1 71 -3 13 -3
-127z"/>
<path d="M3329 682 c-24 -21 -32 -38 -36 -75 -10 -86 32 -137 112 -137 42 0
95 44 95 79 0 29 -24 26 -44 -4 -21 -32 -50 -32 -81 0 -45 44 -34 55 50 55 74
0 75 0 75 26 0 15 -12 38 -29 55 -40 40 -98 41 -142 1z m85 -18 c25 -25 19
-34 -25 -34 -40 0 -42 4 -16 38 13 16 22 15 41 -4z"/>
<path d="M3728 698 c-30 -10 -38 -28 -13 -28 12 0 15 -16 15 -80 0 -62 -3 -82
-15 -86 -33 -13 -12 -24 45 -24 57 0 78 11 45 24 -11 4 -15 22 -15 73 0 58 3
70 21 81 35 22 49 0 49 -80 0 -52 -4 -70 -15 -74 -33 -13 -12 -24 45 -24 57 0
78 11 45 24 -11 4 -15 22 -15 73 0 58 3 70 21 81 35 22 49 0 49 -80 0 -52 -4
-70 -15 -74 -33 -13 -12 -24 45 -24 57 0 78 11 45 24 -12 4 -15 23 -15 83 0
94 -15 123 -63 123 -18 0 -42 -7 -54 -15 -18 -13 -22 -13 -33 0 -14 17 -63 20
-91 5 -13 -7 -19 -7 -19 0 0 12 -26 12 -62 -2z"/>
<path d="M4173 700 c-69 -28 -83 -149 -24 -202 55 -50 153 -32 187 34 42 81
-13 179 -99 177 -23 0 -52 -4 -64 -9z m86 -44 c34 -36 40 -107 12 -135 -27
-27 -42 -27 -70 3 -34 36 -40 107 -12 135 27 27 42 27 70 -3z"/>
<path d="M4388 698 c-30 -10 -38 -28 -13 -28 12 0 15 -16 15 -80 0 -62 -3 -82
-15 -86 -33 -13 -12 -24 45 -24 57 0 78 11 45 24 -12 4 -15 26 -15 106 0 110
-1 111 -62 88z"/>
<path d="M4593 700 c-69 -28 -83 -149 -24 -202 55 -50 153 -32 187 34 42 81
-13 179 -99 177 -23 0 -52 -4 -64 -9z m86 -44 c34 -36 40 -107 12 -135 -27
-27 -42 -27 -70 3 -34 36 -40 107 -12 135 27 27 42 27 70 -3z"/>
<path d="M4969 682 c-58 -52 -48 -171 17 -201 63 -29 136 1 150 62 5 21 3 27
-10 27 -9 0 -19 -7 -22 -15 -9 -22 -41 -37 -64 -30 -24 7 -50 54 -50 87 0 29
26 68 46 68 8 0 19 -12 24 -26 8 -20 16 -25 38 -22 36 4 42 40 10 62 -37 26
-102 21 -139 -12z"/>
<path d="M5223 700 c-69 -28 -83 -149 -24 -202 55 -50 153 -32 187 34 42 81
-13 179 -99 177 -23 0 -52 -4 -64 -9z m86 -44 c34 -36 40 -107 12 -135 -27
-27 -42 -27 -70 3 -34 36 -40 107 -12 135 27 27 42 27 70 -3z"/>
<path d="M5448 698 c-30 -10 -38 -28 -13 -28 12 0 15 -16 15 -80 0 -62 -3 -82
-15 -86 -33 -13 -12 -24 45 -24 57 0 78 11 45 24 -11 4 -15 22 -15 73 0 58 3
70 21 81 35 22 49 0 49 -80 0 -52 -4 -70 -15 -74 -33 -13 -12 -24 45 -24 57 0
78 11 45 24 -11 4 -15 22 -15 73 0 58 3 70 21 81 35 22 49 0 49 -80 0 -52 -4
-70 -15 -74 -33 -13 -12 -24 45 -24 57 0 78 11 45 24 -12 4 -15 23 -15 83 0
94 -15 123 -63 123 -18 0 -42 -7 -54 -15 -18 -13 -22 -13 -33 0 -14 17 -63 20
-91 5 -13 -7 -19 -7 -19 0 0 12 -26 12 -62 -2z"/>
<path d="M2040 694 c0 -3 9 -13 20 -22 10 -10 34 -57 52 -107 42 -112 57 -118
95 -41 15 31 30 56 33 56 3 0 15 -24 26 -53 33 -79 51 -72 92 38 56 151 77
151 132 4 44 -116 59 -123 97 -45 15 31 30 56 33 56 3 0 15 -24 26 -53 33 -79
51 -72 92 38 18 50 40 97 48 105 21 22 37 0 76 -105 42 -112 57 -118 95 -41
15 31 30 56 33 56 3 0 15 -24 26 -53 33 -79 51 -72 92 38 18 50 40 97 48 106
22 24 17 29 -31 29 -25 0 -45 -4 -45 -10 0 -5 6 -10 14 -10 11 0 9 -12 -7 -57
l-21 -57 -25 54 c-16 37 -20 55 -13 58 31 10 6 22 -48 22 -33 0 -60 -4 -60
-10 0 -5 7 -10 15 -10 28 0 37 -36 18 -74 -9 -20 -19 -36 -23 -36 -12 0 -42
104 -31 108 6 2 11 8 11 13 0 5 -45 9 -100 9 -60 0 -100 -4 -100 -10 0 -5 6
-10 14 -10 11 0 9 -12 -7 -57 l-21 -57 -25 54 c-16 37 -20 55 -13 58 31 10 6
22 -48 22 -33 0 -60 -4 -60 -10 0 -5 7 -10 15 -10 28 0 37 -36 18 -74 -9 -20
-19 -36 -23 -36 -12 0 -42 104 -31 108 6 2 11 8 11 13 0 5 -47 9 -105 9 -63 0
-105 -4 -105 -10 0 -5 6 -10 14 -10 11 0 9 -12 -7 -57 l-21 -57 -25 54 c-16
37 -20 55 -13 58 31 10 6 22 -48 22 -33 0 -60 -4 -60 -10 0 -5 7 -10 15 -10
28 0 37 -36 18 -74 -9 -20 -19 -36 -23 -36 -12 0 -42 104 -31 108 30 10 4 22
-49 22 -33 0 -60 -3 -60 -6z"/>
<path d="M3530 595 c0 -24 2 -25 75 -25 73 0 75 1 75 25 0 24 -2 25 -75 25
-73 0 -75 -1 -75 -25z"/>
<path d="M3174 505 c-4 -9 -2 -21 4 -27 16 -16 47 -5 47 17 0 26 -42 34 -51
10z"/>
<path d="M4814 505 c-4 -9 -2 -21 4 -27 16 -16 47 -5 47 17 0 26 -42 34 -51
10z"/>
</g>
</svg>
