<svg xmlns="http://www.w3.org/2000/svg" data-name="26" viewBox="0 0 64 64" id="kwai"><path fill="#ff3e13" fill-rule="evenodd" d="m60,12c0-4.42-3.58-8-8-8H12C7.58,4,4,7.58,4,12v40c0,4.42,3.58,8,8,8h40c4.42,0,8-3.58,8-8V12h0Z"></path><path fill="#fff" fill-rule="evenodd" d="m24.99,37.25l-5.11-2.89c-1.43-.81-3.17-.79-4.59.03-1.41.83-2.28,2.34-2.28,3.98v9.07c0,1.64.87,3.15,2.28,3.98,1.42.83,3.16.84,4.59.03l5.11-2.89c.37.98.95,1.89,1.71,2.65,1.41,1.41,3.32,2.2,5.3,2.2h11c1.99,0,3.9-.79,5.3-2.2,1.41-1.41,2.2-3.32,2.2-5.3v-6c0-1.99-.79-3.9-2.2-5.3-1.41-1.41-3.32-2.2-5.3-2.2h-11c-1.99,0-3.9.79-5.3,2.2-.76.76-1.34,1.66-1.71,2.65h0Zm3.51,8.65v-6c0-.93.37-1.82,1.03-2.48.66-.66,1.55-1.03,2.47-1.03h11c.93,0,1.82.37,2.47,1.03.66.66,1.03,1.55,1.03,2.48v6c0,.93-.37,1.82-1.03,2.47-.66.66-1.55,1.03-2.47,1.03h-11c-.93,0-1.82-.37-2.47-1.03-.66-.66-1.03-1.55-1.03-2.47h0Zm-4-4.33l-6.6-3.73c-.19-.11-.42-.1-.6,0-.19.11-.3.31-.3.52v9.07c0,.22.11.42.3.52.19.11.42.11.6,0l6.6-3.73v-2.67h0Zm10.64-14.32c1.59,2.21,4.18,3.65,7.11,3.65,4.83,0,8.75-3.92,8.75-8.75s-3.92-8.75-8.75-8.75c-2.33,0-4.46.92-6.03,2.41-1.74-3.12-5.06-5.23-8.88-5.23-5.61,0-10.16,4.55-10.16,10.16s4.55,10.16,10.16,10.16c3.13,0,5.93-1.42,7.8-3.65h0Zm-7.8-12.66c3.4,0,6.16,2.76,6.16,6.16s-2.76,6.16-6.16,6.16-6.16-2.76-6.16-6.16,2.76-6.16,6.16-6.16h0Zm14.91,2.82c2.62,0,4.75,2.13,4.75,4.75s-2.13,4.75-4.75,4.75-4.75-2.13-4.75-4.75,2.13-4.75,4.75-4.75h0Z"></path></svg>