<?xml version="1.0" encoding="utf-8"?><!-- Uploaded to: SVG Repo, www.svgrepo.com, Generator: SVG Repo Mixer Tools -->
<svg fill="#000000" width="800px" height="800px" viewBox="0 0 24 24" xmlns="http://www.w3.org/2000/svg"><path d="M21,2H3A1,1,0,0,0,2,3V21a1,1,0,0,0,1,1H21a1,1,0,0,0,1-1V3A1,1,0,0,0,21,2Zm-3.281,8.725h0c-.109.011-.219.016-.328.017A3.571,3.571,0,0,1,14.4,9.129v5.493a4.061,4.061,0,1,1-4.06-4.06c.085,0,.167.008.251.013v2a2.067,2.067,0,1,0-.251,4.119A2.123,2.123,0,0,0,12.5,14.649l.02-9.331h1.914A3.564,3.564,0,0,0,17.719,8.5Z"/></svg>