<?xml version="1.0" standalone="no"?>
<!DOCTYPE svg PUBLIC "-//W3C//DTD SVG 20010904//EN"
 "http://www.w3.org/TR/2001/REC-SVG-20010904/DTD/svg10.dtd">
<svg version="1.0" xmlns="http://www.w3.org/2000/svg"
 width="512.000000pt" height="512.000000pt" viewBox="0 0 512.000000 512.000000"
 preserveAspectRatio="xMidYMid meet">

<g transform="translate(0.000000,512.000000) scale(0.100000,-0.100000)"
fill="#000000" stroke="none">
<path d="M412 5100 c-97 -26 -173 -70 -248 -144 -75 -76 -119 -151 -144 -252
-20 -76 -20 -115 -20 -2144 0 -2029 0 -2068 20 -2144 25 -101 69 -176 144
-252 76 -75 151 -119 252 -144 76 -20 115 -20 2144 -20 2029 0 2068 0 2144 20
101 25 176 69 252 144 75 76 119 151 144 252 20 76 20 115 20 2144 0 2029 0
2068 -20 2144 -26 103 -69 177 -149 256 -79 77 -142 114 -247 140 -76 20 -117
20 -2148 19 -2010 0 -2073 -1 -2144 -19z m1890 -1407 c244 -356 448 -648 454
-649 5 -1 252 281 549 627 297 346 549 639 561 650 19 18 33 19 169 17 l148
-3 -628 -730 c-345 -401 -635 -739 -645 -750 -18 -20 -5 -40 686 -1045 387
-564 704 -1026 704 -1027 0 -2 -233 -3 -518 -3 l-518 0 -473 690 c-261 379
-477 688 -480 685 -4 -2 -272 -312 -596 -689 l-590 -686 -153 0 -154 0 40 48
c22 26 328 382 680 790 l640 744 -586 851 c-321 469 -627 914 -679 990 l-94
137 519 0 520 0 444 -647z"/>
<path d="M1252 4088 c44 -67 2142 -3065 2152 -3076 9 -9 67 -12 244 -10 l231
3 -1083 1550 -1084 1550 -237 3 -238 2 15 -22z"/>
</g>
</svg>
